{"glyphs":{"0":{"ha":772,"x_min":44,"x_max":728,"o":"m 44 481 q 127 863 44 740 q 385 986 210 986 q 644 863 560 986 q 728 481 728 740 q 644 97 728 221 q 386 -26 561 -26 q 128 98 213 -26 q 44 481 44 222 m 244 481 q 274 208 244 286 q 386 129 304 129 q 498 207 468 129 q 528 481 528 285 q 497 753 528 675 q 385 831 467 831 q 274 753 304 831 q 244 481 244 675 z "},"1":{"ha":772,"x_min":96,"x_max":525,"o":"m 96 679 l 96 815 l 124 815 q 314 872 251 815 q 364 986 364 918 l 524 986 l 525 0 l 331 0 l 331 679 l 96 679 z "},"2":{"ha":772,"x_min":36,"x_max":710,"o":"m 236 638 l 47 638 q 175 932 47 846 q 368 986 254 986 q 611 903 515 986 q 707 675 707 821 q 640 476 707 563 q 503 354 596 418 q 382 269 442 311 q 282 172 299 208 l 710 172 l 710 0 l 36 0 q 69 181 36 111 q 265 392 119 286 q 421 510 388 481 q 513 682 513 590 q 481 776 513 738 q 376 822 443 822 q 256 757 288 822 q 236 638 236 717 z "},"3":{"ha":772,"x_min":36,"x_max":717,"o":"m 294 432 l 294 571 l 325 571 q 429 589 393 571 q 492 704 492 621 q 457 797 492 764 q 367 831 422 831 q 250 764 281 831 q 233 669 233 728 l 53 669 q 132 897 53 814 q 379 986 217 986 q 582 928 499 986 q 686 711 686 854 q 649 589 686 640 q 567 524 618 546 q 677 438 638 499 q 717 292 717 376 q 624 63 717 151 q 381 -26 531 -26 q 124 61 211 -26 q 36 303 36 149 l 226 303 q 249 196 226 238 q 371 129 285 129 q 472 168 433 129 q 517 292 517 213 q 440 413 517 381 q 294 432 393 432 z "},"4":{"ha":772,"x_min":38,"x_max":731,"o":"m 181 369 l 429 369 l 429 793 l 181 369 m 731 369 l 729 218 l 621 218 l 621 0 l 426 0 l 426 218 l 38 218 l 38 386 l 399 986 l 621 986 l 621 369 l 731 369 z "},"5":{"ha":772,"x_min":36,"x_max":717,"o":"m 275 806 l 242 592 q 307 628 275 615 q 418 646 356 646 q 617 572 533 646 q 717 328 717 485 q 647 100 717 193 q 358 -26 553 -26 q 139 43 228 -26 q 36 264 36 124 l 231 264 q 272 165 238 200 q 369 129 307 129 q 477 181 438 129 q 517 314 517 232 q 483 435 517 386 q 372 490 444 490 q 311 482 333 490 q 240 419 267 465 l 67 428 l 135 969 l 676 969 l 676 806 l 275 806 z "},"6":{"ha":772,"x_min":43,"x_max":722,"o":"m 703 736 l 510 736 q 476 806 504 781 q 394 831 449 831 q 267 743 308 831 q 232 558 232 669 l 236 556 q 316 619 269 601 q 421 638 363 638 q 647 542 564 638 q 722 333 722 454 q 633 72 722 171 q 400 -26 544 -26 q 110 129 196 -26 q 43 469 43 249 q 61 686 43 600 q 161 893 89 818 q 408 986 251 986 q 506 974 456 986 q 610 922 576 956 q 672 845 653 881 q 703 736 690 810 m 526 317 q 479 446 526 401 q 386 482 440 482 q 285 444 324 482 q 238 313 238 399 q 279 180 238 231 q 392 129 321 129 q 488 175 450 129 q 526 317 526 221 z "},"7":{"ha":772,"x_min":33,"x_max":732,"o":"m 732 969 l 732 819 q 599 657 651 731 q 446 379 501 521 q 374 0 374 193 l 174 0 q 246 363 174 179 q 396 639 301 503 q 524 797 456 725 l 33 797 l 33 969 l 732 969 z "},"8":{"ha":772,"x_min":44,"x_max":728,"o":"m 388 586 q 476 620 444 586 q 507 708 507 654 q 474 797 507 763 q 393 831 442 831 q 294 798 328 831 q 260 708 260 765 q 294 623 260 660 q 388 586 328 586 m 728 293 q 656 88 728 175 q 386 -26 563 -26 q 121 72 213 -26 q 44 274 44 156 q 63 390 44 344 q 193 524 97 479 q 75 717 75 583 q 161 913 75 840 q 381 986 247 986 q 614 910 528 986 q 694 729 694 838 q 667 611 694 661 q 579 531 639 561 q 689 443 656 493 q 728 293 728 385 m 528 285 q 496 388 528 346 q 382 439 457 439 q 284 401 324 439 q 244 286 244 363 q 283 172 244 214 q 388 129 321 129 q 496 181 458 129 q 528 285 528 224 z "},"9":{"ha":772,"x_min":42,"x_max":724,"o":"m 235 660 q 279 514 235 557 q 381 479 315 479 q 478 518 438 479 q 525 644 525 564 q 487 778 525 731 q 375 826 449 826 q 286 797 321 826 q 235 660 235 754 m 61 228 l 254 228 q 292 153 263 178 q 368 129 322 129 q 479 189 436 129 q 531 404 531 261 l 526 407 q 443 340 496 361 q 340 324 399 324 q 123 413 204 324 q 42 632 42 503 q 136 900 42 807 q 376 986 224 986 q 637 863 550 986 q 724 479 724 740 q 613 83 724 214 q 367 -26 519 -26 q 157 42 240 -26 q 61 228 74 110 z "}," ":{"ha":386,"x_min":0,"x_max":0,"o":""},"!":{"ha":463,"x_min":125,"x_max":339,"o":"m 333 196 l 333 0 l 131 0 l 131 196 l 333 196 m 339 743 l 282 276 l 179 276 l 125 743 l 125 997 l 339 997 l 339 743 z "},"\"":{"ha":658,"x_min":135,"x_max":522,"o":"m 385 621 l 385 997 l 522 997 l 521 621 l 385 621 m 135 621 l 135 997 l 272 997 l 271 621 l 135 621 z "},"#":{"ha":772,"x_min":24,"x_max":746,"o":"m 706 401 l 689 276 l 554 276 l 517 0 l 386 0 l 424 276 l 289 276 l 251 0 l 121 0 l 158 276 l 24 276 l 40 401 l 175 401 l 200 568 l 65 568 l 81 693 l 215 693 l 254 969 l 385 969 l 346 693 l 481 693 l 519 969 l 650 969 l 611 693 l 746 693 l 731 568 l 596 568 l 571 401 l 706 401 m 465 568 l 331 568 l 306 401 l 440 401 l 465 568 z "},"$":{"ha":772,"x_min":42,"x_max":726,"o":"m 710 696 l 531 696 q 494 815 531 782 q 418 839 469 839 l 418 579 q 567 522 510 550 q 650 469 624 494 q 717 360 700 422 q 726 275 726 324 q 658 78 726 161 q 418 -24 575 -24 l 419 -160 l 356 -160 l 354 -24 q 116 58 190 -24 q 42 299 42 139 l 224 299 q 251 182 231 215 q 354 124 279 138 l 354 415 q 157 497 218 451 q 63 697 63 568 q 133 899 63 819 q 353 986 211 986 l 353 1076 l 417 1076 l 417 986 q 601 931 538 974 q 710 696 710 858 m 354 599 l 354 839 q 267 806 297 839 q 238 731 238 772 q 275 636 238 669 q 354 599 304 610 m 418 392 l 418 124 q 496 151 463 124 q 540 260 540 189 q 500 350 540 314 q 418 392 469 378 z "},"%":{"ha":1235,"x_min":38,"x_max":1196,"o":"m 690 236 q 764 415 690 342 q 943 489 838 489 q 1122 415 1047 489 q 1196 236 1196 340 q 1122 58 1196 132 q 943 -17 1047 -17 q 765 56 839 -17 q 690 236 690 129 m 833 236 q 865 158 833 190 q 943 126 897 126 q 1020 158 988 126 q 1053 236 1053 189 q 1021 314 1053 282 q 943 346 989 346 q 866 315 899 346 q 833 236 833 283 m 38 733 q 111 913 38 839 q 290 986 185 986 q 469 912 394 986 q 543 733 543 838 q 469 554 543 628 q 292 481 396 481 q 112 553 186 481 q 38 733 38 626 m 181 733 q 213 656 181 688 q 290 624 244 624 q 367 655 335 624 q 400 733 400 686 q 368 811 400 779 q 290 843 336 843 q 213 812 246 843 q 181 733 181 781 m 940 986 l 389 -26 l 286 -26 l 838 986 l 940 986 z "},"&":{"ha":1003,"x_min":74,"x_max":974,"o":"m 539 768 q 515 829 539 808 q 454 850 492 850 q 397 829 419 850 q 375 769 375 808 q 447 644 375 721 q 515 701 490 672 q 539 768 539 731 m 792 218 l 974 0 l 739 0 l 671 85 q 564 7 618 32 q 386 -26 490 -26 q 160 58 247 -26 q 74 257 74 142 q 107 400 74 342 q 267 547 151 478 l 288 560 q 226 649 249 604 q 197 768 197 708 q 271 933 197 869 q 463 997 344 997 q 625 943 557 997 q 706 767 706 879 q 666 637 706 694 q 542 529 626 579 l 683 354 q 724 438 714 403 q 733 518 733 472 l 906 518 q 875 350 906 422 q 792 218 853 296 m 571 207 l 388 436 q 299 360 321 388 q 269 269 269 322 q 299 189 269 225 q 417 138 339 138 q 506 160 463 138 q 571 207 536 175 z "},"'":{"ha":331,"x_min":96,"x_max":233,"o":"m 96 621 l 97 997 l 233 997 l 232 621 l 96 621 z "},"(":{"ha":463,"x_min":47,"x_max":436,"o":"m 436 -289 l 293 -289 q 124 -3 182 -139 q 47 363 47 176 q 121 728 47 550 q 292 1019 179 867 l 435 1019 q 301 731 344 865 q 247 363 247 560 q 274 106 247 228 q 342 -104 296 1 q 436 -289 378 -186 z "},")":{"ha":463,"x_min":25,"x_max":413,"o":"m 25 1019 l 168 1019 q 338 733 279 871 q 413 368 413 556 q 340 3 413 179 q 169 -289 282 -139 l 26 -289 q 160 0 118 -135 q 213 368 213 167 q 157 735 213 565 q 25 1019 115 863 z "},"*":{"ha":540,"x_min":36,"x_max":501,"o":"m 469 879 l 501 778 l 356 733 l 453 599 l 364 538 l 271 664 l 174 538 l 88 599 l 181 733 l 36 778 l 69 879 l 210 832 l 211 997 l 329 997 l 328 832 l 469 879 z "},"+":{"ha":811,"x_min":56,"x_max":756,"o":"m 328 429 l 328 703 l 483 703 l 483 429 l 756 429 l 756 274 l 483 274 l 483 0 l 328 0 l 328 274 l 56 274 l 56 429 l 328 429 z "},",":{"ha":386,"x_min":89,"x_max":297,"o":"m 297 203 l 297 28 q 239 -156 297 -92 q 90 -233 189 -210 l 90 -160 q 167 -118 144 -140 q 206 0 206 -78 l 89 0 l 89 203 l 297 203 z "},"-":{"ha":463,"x_min":38,"x_max":425,"o":"m 424 479 l 425 299 l 38 299 l 38 479 l 424 479 z "},".":{"ha":386,"x_min":89,"x_max":297,"o":"m 297 203 l 297 0 l 89 0 l 89 203 l 297 203 z "},"/":{"ha":386,"x_min":-46,"x_max":432,"o":"m 432 1024 l 117 -26 l -46 -26 l 269 1024 l 432 1024 z "},":":{"ha":463,"x_min":128,"x_max":336,"o":"m 336 203 l 336 0 l 128 0 l 128 203 l 336 203 m 336 711 l 336 508 l 128 508 l 128 711 l 336 711 z "},";":{"ha":463,"x_min":128,"x_max":336,"o":"m 336 203 l 336 28 q 278 -156 336 -92 q 129 -233 228 -210 l 129 -160 q 206 -118 183 -140 q 244 0 244 -78 l 128 0 l 128 203 l 336 203 m 336 711 l 336 508 l 128 508 l 128 711 l 336 711 z "},"<":{"ha":811,"x_min":53,"x_max":758,"o":"m 758 139 l 758 -11 l 53 289 l 53 414 l 757 714 l 757 564 l 254 351 l 758 139 z "},"=":{"ha":811,"x_min":54,"x_max":754,"o":"m 754 582 l 754 426 l 54 426 l 54 582 l 754 582 m 754 276 l 754 121 l 54 121 l 54 276 l 754 276 z "},">":{"ha":811,"x_min":51,"x_max":758,"o":"m 53 139 l 557 351 l 51 564 l 51 714 l 757 414 l 758 289 l 53 -11 l 53 139 z "},"?":{"ha":849,"x_min":83,"x_max":771,"o":"m 519 289 l 336 289 q 360 451 336 397 q 476 571 385 506 q 563 708 563 631 q 518 818 563 783 q 428 846 483 846 q 326 810 364 846 q 278 686 288 775 l 83 685 q 193 938 83 850 q 417 1010 283 1010 q 681 928 583 1010 q 771 714 771 851 q 728 572 771 633 q 603 458 692 521 q 539 396 554 422 q 519 289 519 361 m 533 196 l 533 0 l 331 0 l 331 196 l 533 196 z "},"@":{"ha":1158,"x_min":65,"x_max":1092,"o":"m 710 522 q 678 607 710 574 q 597 640 646 640 q 482 581 529 640 q 435 453 435 521 q 463 363 435 397 q 543 329 492 329 q 663 388 615 329 q 710 522 710 447 m 751 685 l 768 758 l 890 758 l 811 404 q 804 369 807 385 q 801 344 801 354 q 821 317 801 317 q 930 385 881 317 q 979 561 979 453 q 874 820 979 728 q 600 913 768 913 q 314 794 424 913 q 204 496 204 676 q 320 198 204 311 q 619 85 436 85 q 779 115 704 85 q 911 197 854 144 l 1035 197 q 852 32 963 90 q 611 -26 742 -26 q 225 124 385 -26 q 65 499 65 274 q 223 872 65 719 q 603 1024 381 1024 q 942 907 800 1024 q 1092 594 1092 783 q 951 281 1092 397 q 738 190 843 190 q 681 209 706 190 q 657 264 657 228 q 586 211 625 232 q 510 190 547 190 q 353 262 419 190 q 286 432 286 333 q 367 668 286 568 q 583 775 453 775 q 680 754 639 775 q 751 685 721 733 z "},"A":{"ha":1003,"x_min":28,"x_max":975,"o":"m 315 206 l 247 0 l 28 0 l 383 997 l 624 997 l 975 0 l 749 0 l 683 206 l 315 206 m 372 378 l 626 378 l 501 772 l 372 378 z "},"B":{"ha":1003,"x_min":106,"x_max":928,"o":"m 106 0 l 106 997 l 590 997 q 835 908 754 997 q 897 742 897 839 q 851 594 897 649 q 774 538 825 564 q 896 438 858 506 q 928 296 928 379 q 843 90 928 172 q 742 25 794 43 q 528 0 668 0 l 106 0 m 304 439 l 306 172 l 561 172 q 680 208 639 172 q 721 318 721 243 q 676 409 721 379 q 569 439 632 439 l 304 439 m 304 825 l 306 607 l 550 607 q 654 632 617 607 q 697 718 697 661 q 657 800 697 775 q 543 825 617 825 l 304 825 z "},"C":{"ha":1003,"x_min":60,"x_max":950,"o":"m 950 671 l 742 671 q 689 779 722 743 q 519 843 632 843 q 360 775 424 843 q 274 494 274 683 q 331 257 274 347 q 521 154 396 154 q 665 202 608 154 q 740 342 722 250 l 949 342 q 813 76 917 171 q 517 -26 700 -26 q 189 106 311 -26 q 60 497 60 244 q 193 892 60 750 q 519 1024 317 1024 q 842 903 722 1024 q 950 671 939 804 z "},"D":{"ha":1003,"x_min":106,"x_max":951,"o":"m 106 0 l 106 997 l 546 997 q 875 831 771 997 q 951 522 951 708 q 868 182 951 321 q 538 0 760 0 l 106 0 m 308 825 l 310 172 l 513 172 q 689 278 629 172 q 739 507 739 367 q 657 776 739 701 q 508 825 604 825 l 308 825 z "},"E":{"ha":926,"x_min":106,"x_max":863,"o":"m 839 997 l 839 821 l 310 821 l 310 611 l 796 611 l 796 435 l 310 435 l 310 176 l 863 176 l 863 0 l 106 0 l 106 997 l 839 997 z "},"F":{"ha":849,"x_min":106,"x_max":815,"o":"m 313 419 l 314 0 l 106 0 l 106 997 l 815 997 l 815 821 l 314 821 l 313 596 l 751 596 l 751 419 l 313 419 z "},"G":{"ha":1081,"x_min":61,"x_max":989,"o":"m 572 369 l 572 538 l 989 538 l 989 0 l 851 0 l 831 125 q 724 26 771 56 q 519 -26 639 -26 q 200 103 326 -26 q 61 496 61 244 q 178 861 61 718 q 549 1024 310 1024 q 881 907 757 1024 q 985 688 985 808 l 776 688 q 724 783 776 731 q 558 851 656 851 q 360 768 436 851 q 272 493 272 672 q 364 219 272 306 q 564 150 438 150 q 685 183 629 150 q 806 369 778 239 l 572 369 z "},"H":{"ha":1003,"x_min":99,"x_max":904,"o":"m 696 447 l 307 447 l 307 0 l 99 0 l 99 997 l 307 997 l 307 619 l 696 619 l 696 997 l 904 997 l 904 0 l 696 0 l 696 447 z "},"I":{"ha":386,"x_min":89,"x_max":297,"o":"m 297 997 l 297 0 l 89 0 l 89 997 l 297 997 z "},"J":{"ha":772,"x_min":31,"x_max":672,"o":"m 672 997 l 672 289 q 594 53 672 132 q 363 -25 515 -25 q 72 104 142 -25 q 31 376 31 181 l 225 376 q 244 201 225 246 q 347 143 269 143 q 446 188 419 143 q 464 289 464 218 l 464 997 l 672 997 z "},"K":{"ha":1003,"x_min":121,"x_max":1003,"o":"m 329 338 l 329 0 l 121 0 l 121 997 l 329 997 l 329 592 l 710 997 l 979 997 l 571 589 l 1003 0 l 735 0 l 426 438 l 329 338 z "},"L":{"ha":849,"x_min":106,"x_max":810,"o":"m 314 997 l 314 181 l 810 181 l 810 0 l 106 0 l 106 997 l 314 997 z "},"M":{"ha":1157,"x_min":96,"x_max":1063,"o":"m 1063 997 l 1063 0 l 868 0 l 868 833 l 679 0 l 475 0 l 293 833 l 290 0 l 96 0 l 96 997 l 400 997 l 581 211 l 761 997 l 1063 997 z "},"N":{"ha":1003,"x_min":96,"x_max":908,"o":"m 714 997 l 908 997 l 908 0 l 700 0 l 293 711 l 290 0 l 96 0 l 96 997 l 315 997 l 710 303 l 714 997 z "},"O":{"ha":1081,"x_min":60,"x_max":1018,"o":"m 60 499 q 154 843 60 713 q 357 992 228 944 q 540 1024 444 1024 q 722 992 635 1024 q 924 843 850 944 q 1018 499 1018 713 q 924 154 1018 285 q 724 6 850 51 q 540 -26 636 -26 q 357 6 444 -26 q 156 154 231 51 q 60 499 60 286 m 268 499 q 361 219 268 310 q 540 150 433 150 q 717 219 646 150 q 810 499 810 310 q 718 778 810 688 q 540 847 647 847 q 363 778 435 847 q 268 499 268 688 z "},"P":{"ha":926,"x_min":106,"x_max":871,"o":"m 314 360 l 314 0 l 106 0 l 106 997 l 561 997 q 788 912 706 997 q 871 678 871 826 q 813 485 871 572 q 553 360 729 360 l 314 360 m 313 532 l 506 532 q 642 593 606 532 q 661 688 661 626 q 618 793 661 761 q 478 825 575 825 l 313 825 l 313 532 z "},"Q":{"ha":1081,"x_min":60,"x_max":1024,"o":"m 551 271 l 660 383 l 765 285 q 798 378 786 325 q 810 499 810 432 q 718 778 810 688 q 540 847 647 847 q 363 778 435 847 q 268 499 268 688 q 361 219 268 310 q 540 150 433 150 q 598 156 569 150 q 653 176 626 163 l 551 271 m 1024 40 l 914 -72 l 796 40 q 654 -14 732 3 q 540 -26 596 -26 q 357 6 444 -26 q 156 154 231 51 q 60 499 60 286 q 154 843 60 713 q 357 992 228 944 q 540 1024 444 1024 q 722 992 635 1024 q 924 843 850 944 q 1018 499 1018 713 q 992 292 1018 379 q 915 143 965 206 l 1024 40 z "},"R":{"ha":1003,"x_min":106,"x_max":940,"o":"m 106 0 l 106 997 l 610 997 q 865 889 783 997 q 922 715 922 813 q 881 567 922 632 q 768 478 840 503 q 863 408 839 447 q 894 225 894 356 q 901 72 894 106 q 940 26 908 39 l 940 0 l 710 0 q 693 82 699 40 q 688 201 688 124 q 665 347 688 315 q 525 390 635 390 l 310 390 l 310 0 l 106 0 m 308 558 l 553 558 q 675 590 636 558 q 714 694 714 621 q 688 779 714 746 q 568 825 650 825 l 308 825 l 308 558 z "},"S":{"ha":926,"x_min":54,"x_max":874,"o":"m 54 307 l 254 307 q 290 206 254 246 q 465 146 344 146 q 607 171 554 146 q 674 275 674 203 q 624 357 674 329 q 493 399 590 375 l 386 424 q 168 501 226 461 q 69 717 69 569 q 139 911 69 832 q 453 1024 238 1024 q 761 908 657 1024 q 840 701 840 821 l 640 701 q 606 793 633 761 q 436 851 556 851 q 319 826 365 851 q 263 732 263 794 q 300 654 263 681 q 368 628 321 639 l 613 568 q 794 489 736 538 q 874 300 874 424 q 774 65 874 149 q 481 -26 664 -26 q 131 93 238 -26 q 54 307 54 178 z "},"T":{"ha":849,"x_min":19,"x_max":831,"o":"m 529 821 l 529 0 l 321 0 l 321 821 l 19 821 l 19 997 l 831 997 l 831 821 l 529 821 z "},"U":{"ha":1003,"x_min":99,"x_max":903,"o":"m 903 997 l 903 349 q 793 63 903 157 q 494 -26 690 -26 q 335 -4 406 -26 q 176 94 239 26 q 99 336 99 185 l 100 997 l 313 997 l 313 350 q 363 201 313 251 q 490 150 413 150 q 643 199 594 150 q 692 340 692 247 l 692 997 l 903 997 z "},"V":{"ha":926,"x_min":26,"x_max":900,"o":"m 683 997 l 900 997 l 561 0 l 363 0 l 26 997 l 250 997 l 464 242 l 683 997 z "},"W":{"ha":1311,"x_min":22,"x_max":1290,"o":"m 304 0 l 22 997 l 244 997 q 338 592 299 767 q 379 396 361 489 q 403 268 397 303 q 440 475 421 372 q 544 997 468 624 l 765 997 q 875 476 846 617 q 914 268 894 381 q 956 469 932 361 q 1079 997 981 578 l 1290 997 l 1010 0 l 810 0 q 732 376 788 106 q 689 594 710 488 q 654 778 668 700 q 624 606 638 682 q 581 389 601 492 q 499 0 539 194 l 304 0 z "},"X":{"ha":926,"x_min":19,"x_max":907,"o":"m 581 518 l 907 0 l 653 0 l 464 340 l 263 0 l 19 0 l 342 510 l 38 997 l 286 997 l 463 675 l 646 997 l 886 997 l 581 518 z "},"Y":{"ha":926,"x_min":21,"x_max":907,"o":"m 574 374 l 574 0 l 365 0 l 365 376 l 21 997 l 267 997 l 472 564 l 671 997 l 907 997 l 574 374 z "},"Z":{"ha":849,"x_min":35,"x_max":814,"o":"m 814 176 l 814 0 l 35 0 l 35 176 l 550 821 l 49 821 l 49 997 l 811 997 l 811 833 l 289 176 l 814 176 z "},"[":{"ha":463,"x_min":86,"x_max":429,"o":"m 256 869 l 256 -139 l 429 -139 l 429 -272 l 86 -272 l 86 1003 l 428 1003 l 428 869 l 256 869 z "},"\\":{"ha":386,"x_min":-46,"x_max":432,"o":"m 269 -26 l -46 1024 l 117 1024 l 432 -26 l 269 -26 z "},"]":{"ha":463,"x_min":32,"x_max":375,"o":"m 206 -139 l 204 869 l 32 869 l 32 1003 l 374 1003 l 375 -272 l 33 -272 l 33 -139 l 206 -139 z "},"^":{"ha":811,"x_min":86,"x_max":725,"o":"m 238 449 l 86 449 l 335 969 l 474 969 l 725 449 l 572 449 l 406 814 l 238 449 z "},"_":{"ha":772,"x_min":0,"x_max":772,"o":"m 772 -174 l 0 -174 l 0 -104 l 772 -104 l 772 -174 z "},"`":{"ha":463,"x_min":36,"x_max":381,"o":"m 240 839 l 36 1042 l 250 1042 l 381 839 l 240 839 z "},"a":{"ha":772,"x_min":40,"x_max":732,"o":"m 688 544 l 689 144 q 700 60 689 83 q 732 29 711 36 l 732 0 l 522 0 q 504 88 508 42 q 418 17 457 38 q 265 -19 354 -19 q 111 31 172 -19 q 40 196 40 89 q 98 359 40 300 q 256 432 156 418 l 429 458 q 484 478 469 464 q 499 517 499 493 q 453 590 499 571 q 369 603 424 603 q 276 568 306 603 q 251 500 256 543 l 64 500 q 179 714 78 653 q 393 758 253 758 q 579 721 504 758 q 688 544 688 667 m 499 265 l 499 360 q 454 338 485 349 q 362 318 424 328 q 274 290 300 308 q 235 208 235 264 q 265 139 235 163 q 325 119 290 119 q 447 160 394 119 q 499 265 499 200 z "},"b":{"ha":849,"x_min":85,"x_max":803,"o":"m 603 364 q 567 521 603 463 q 436 590 524 590 q 304 517 344 590 q 271 353 271 457 q 310 206 271 263 q 442 140 354 140 q 569 219 526 140 q 603 364 603 281 m 278 997 l 278 643 q 378 733 325 707 q 494 758 431 758 q 710 664 625 758 q 803 378 803 561 q 731 103 803 210 q 492 -19 647 -19 q 372 6 425 -19 q 278 93 311 35 l 275 0 l 85 0 l 85 997 l 278 997 z "},"c":{"ha":772,"x_min":46,"x_max":728,"o":"m 529 269 l 726 269 q 657 97 718 174 q 389 -19 565 -19 q 114 106 203 -19 q 46 349 46 201 q 129 643 46 538 q 400 758 219 758 q 600 704 517 758 q 728 475 715 631 l 531 475 q 481 569 518 539 q 401 594 450 594 q 278 522 318 594 q 246 381 246 465 q 283 194 246 249 q 396 140 319 140 q 499 192 460 140 q 529 269 529 232 z "},"d":{"ha":849,"x_min":47,"x_max":765,"o":"m 765 997 l 765 0 l 575 0 l 575 93 q 479 6 540 35 q 358 -19 426 -19 q 121 103 204 -19 q 47 378 47 211 q 139 664 47 561 q 353 758 222 758 q 496 719 438 758 q 567 643 536 693 l 569 997 l 765 997 m 247 364 q 279 219 247 279 q 406 140 321 140 q 539 206 493 140 q 579 353 579 263 q 546 515 579 456 q 411 590 504 590 q 283 521 325 590 q 247 364 247 461 z "},"e":{"ha":772,"x_min":32,"x_max":733,"o":"m 525 217 l 725 217 q 592 32 689 93 q 400 -19 510 -19 q 138 68 229 -19 q 32 385 32 169 q 86 604 32 511 q 385 758 175 758 q 614 682 525 758 q 733 351 733 579 l 732 317 l 225 317 q 278 177 238 218 q 400 136 319 136 q 478 157 443 136 q 525 217 514 178 m 232 443 l 533 443 q 478 565 525 525 q 383 599 439 599 q 278 558 315 599 q 232 443 240 518 z "},"f":{"ha":463,"x_min":13,"x_max":442,"o":"m 315 600 l 315 0 l 121 0 l 121 600 l 14 600 l 13 739 l 119 739 l 119 799 q 176 959 119 908 q 338 1010 232 1010 l 436 1007 l 436 850 l 382 850 q 326 835 336 850 q 315 768 315 819 l 314 739 l 440 739 l 442 600 l 315 600 z "},"g":{"ha":849,"x_min":56,"x_max":768,"o":"m 581 739 l 768 739 l 768 39 q 718 -179 768 -107 q 394 -301 633 -301 q 176 -250 265 -301 q 72 -79 72 -189 l 283 -79 q 311 -131 292 -115 q 419 -154 343 -154 q 574 15 574 -154 l 574 104 l 571 107 q 504 31 543 57 q 374 -4 453 -4 q 149 89 233 -4 q 56 378 56 192 q 147 664 56 561 q 361 758 231 758 q 513 713 453 758 q 578 629 554 681 l 581 739 m 256 365 q 288 228 256 282 q 408 160 328 160 q 540 228 499 160 q 575 374 575 283 q 531 528 575 467 q 407 590 486 590 q 304 543 343 590 q 256 365 256 485 z "},"h":{"ha":849,"x_min":90,"x_max":758,"o":"m 757 511 l 758 0 l 564 0 l 564 449 q 547 542 564 511 q 438 594 519 594 q 328 550 371 594 q 285 424 285 506 l 285 0 l 90 0 l 90 997 l 283 997 l 283 643 q 365 725 307 692 q 500 758 424 758 q 685 694 613 758 q 757 511 757 629 z "},"i":{"ha":386,"x_min":94,"x_max":289,"o":"m 94 739 l 289 739 l 289 0 l 94 0 l 94 739 m 289 1007 l 289 826 l 94 826 l 94 1007 l 289 1007 z "},"j":{"ha":386,"x_min":4,"x_max":290,"o":"m 290 739 l 290 -78 q 228 -260 290 -212 q 54 -297 178 -297 l 6 -297 l 4 -142 l 39 -142 q 74 -133 61 -142 q 96 -74 96 -118 l 96 739 l 290 739 m 290 1007 l 290 826 l 96 826 l 96 1007 l 290 1007 z "},"k":{"ha":800,"x_min":96,"x_max":781,"o":"m 290 233 l 290 0 l 96 0 l 96 997 l 289 997 l 289 458 l 533 739 l 772 739 l 511 453 l 781 0 l 547 0 l 369 317 l 290 233 z "},"l":{"ha":386,"x_min":96,"x_max":290,"o":"m 290 997 l 290 0 l 96 0 l 96 997 l 290 997 z "},"m":{"ha":1235,"x_min":88,"x_max":1147,"o":"m 1146 511 l 1147 0 l 953 0 l 953 449 q 924 560 953 526 q 847 594 896 594 q 747 554 778 594 q 715 443 715 514 l 715 0 l 521 0 l 521 444 q 507 543 521 515 q 404 594 482 594 q 312 556 340 594 q 283 450 283 517 l 283 0 l 89 0 l 88 739 l 274 739 l 274 631 q 342 713 306 685 q 486 758 400 758 q 607 731 563 758 q 692 640 651 703 q 756 713 729 692 q 889 758 813 758 q 1074 694 1001 758 q 1146 511 1146 629 z "},"n":{"ha":849,"x_min":90,"x_max":758,"o":"m 757 511 l 758 0 l 564 0 l 564 449 q 547 542 564 511 q 438 594 519 594 q 328 550 371 594 q 285 424 285 506 l 285 0 l 90 0 l 90 739 l 275 739 l 275 631 q 376 730 322 701 q 500 758 429 758 q 685 694 613 758 q 757 511 757 629 z "},"o":{"ha":849,"x_min":47,"x_max":803,"o":"m 803 369 q 689 75 803 179 q 425 -19 586 -19 q 161 75 264 -19 q 47 369 47 179 q 161 664 47 558 q 424 758 264 758 q 688 664 583 758 q 803 369 803 558 m 603 369 q 571 517 603 461 q 425 594 526 594 q 281 518 325 594 q 247 369 247 460 q 279 222 247 278 q 425 144 324 144 q 569 221 525 144 q 603 369 603 279 z "},"p":{"ha":849,"x_min":86,"x_max":803,"o":"m 272 353 q 310 206 272 261 q 442 140 354 140 q 569 219 526 140 q 603 364 603 281 q 567 521 603 463 q 436 590 524 590 q 304 517 344 590 q 272 353 272 458 m 271 739 l 272 632 q 349 717 311 690 q 494 758 407 758 q 710 664 625 758 q 803 378 803 561 q 731 103 803 210 q 492 -19 647 -19 q 346 22 404 -19 q 282 94 311 47 l 281 -287 l 86 -287 l 86 739 l 271 739 z "},"q":{"ha":849,"x_min":47,"x_max":767,"o":"m 579 739 l 765 739 l 767 -287 l 572 -287 l 572 92 q 360 -19 508 -19 q 117 108 201 -19 q 47 354 47 213 q 122 633 47 524 q 369 758 208 758 q 510 713 453 758 q 576 629 547 682 l 579 739 m 246 356 q 287 199 246 253 q 414 144 328 144 q 531 200 486 144 q 576 365 576 256 q 508 554 576 497 q 408 590 465 590 q 299 544 339 590 q 246 356 246 485 z "},"r":{"ha":540,"x_min":88,"x_max":518,"o":"m 89 0 l 88 739 l 274 739 l 275 611 q 347 713 315 685 q 479 758 399 758 l 518 756 l 517 558 q 492 560 504 560 q 463 561 481 561 q 317 504 360 561 q 283 385 283 461 l 283 0 l 89 0 z "},"s":{"ha":772,"x_min":42,"x_max":721,"o":"m 699 514 l 508 514 q 481 581 500 561 q 378 611 450 611 q 278 588 307 611 q 257 539 257 571 q 376 469 257 496 q 600 408 549 432 q 721 235 721 351 q 603 28 721 93 q 397 -19 517 -19 q 157 33 249 -19 q 42 236 42 100 l 242 236 q 278 156 242 185 q 403 128 315 128 q 501 156 468 128 q 526 204 526 176 q 408 276 526 250 q 186 336 232 315 q 67 511 67 392 q 129 675 67 608 q 365 758 208 758 q 586 715 506 758 q 699 514 699 656 z "},"t":{"ha":463,"x_min":13,"x_max":429,"o":"m 308 939 l 307 739 l 429 739 l 429 600 l 308 600 l 307 199 q 320 151 307 163 q 389 139 333 139 l 429 142 l 429 -6 l 338 -8 l 313 -8 q 150 35 194 -8 q 114 151 114 69 l 114 600 l 14 600 l 13 739 l 113 739 l 114 939 l 308 939 z "},"u":{"ha":849,"x_min":90,"x_max":757,"o":"m 757 739 l 757 0 l 571 0 l 571 104 q 343 -19 497 -19 q 163 46 228 -19 q 92 253 92 117 l 90 739 l 286 739 l 286 281 q 326 169 286 203 q 413 144 357 144 q 511 178 472 144 q 563 313 563 222 l 563 739 l 757 739 z "},"v":{"ha":772,"x_min":17,"x_max":753,"o":"m 753 739 l 488 0 l 283 0 l 17 739 l 233 739 l 388 194 l 546 739 l 753 739 z "},"w":{"ha":1081,"x_min":13,"x_max":1067,"o":"m 1067 739 l 856 0 l 656 0 l 539 539 l 422 0 l 222 0 l 13 739 l 219 739 l 336 208 l 442 739 l 638 739 l 750 208 l 867 739 l 1067 739 z "},"x":{"ha":772,"x_min":21,"x_max":751,"o":"m 500 376 l 751 0 l 511 0 l 383 222 l 256 0 l 21 0 l 272 376 l 29 739 l 265 739 l 390 524 l 513 739 l 742 739 l 500 376 z "},"y":{"ha":772,"x_min":13,"x_max":747,"o":"m 747 739 l 494 13 q 382 -244 424 -197 q 210 -297 335 -297 l 121 -294 l 121 -139 l 158 -142 q 242 -125 218 -142 q 286 -31 274 -103 l 13 739 l 229 739 l 389 194 l 542 739 l 747 739 z "},"z":{"ha":694,"x_min":28,"x_max":667,"o":"m 653 579 l 278 160 l 665 160 l 667 0 l 28 0 l 28 151 l 406 583 l 53 583 l 53 739 l 653 739 l 653 579 z "},"{":{"ha":540,"x_min":67,"x_max":507,"o":"m 507 -150 l 507 -272 l 392 -272 q 261 -226 317 -272 q 197 -82 197 -174 l 197 196 q 147 281 197 253 q 67 301 111 301 l 67 429 q 146 449 111 429 q 197 535 197 478 l 196 813 q 260 957 196 904 q 390 1003 315 1003 l 507 1003 l 507 881 l 444 881 q 387 862 407 881 q 367 789 367 843 l 367 517 q 300 399 357 439 q 208 367 261 372 q 299 332 261 358 q 367 214 357 290 l 367 -58 q 378 -119 367 -100 q 444 -150 396 -150 l 507 -150 z "},"|":{"ha":389,"x_min":117,"x_max":272,"o":"m 117 -26 l 117 1024 l 272 1024 l 272 -26 l 117 -26 z "},"}":{"ha":540,"x_min":32,"x_max":474,"o":"m 474 429 l 474 301 q 394 282 429 301 q 343 196 343 253 l 343 -82 q 279 -226 343 -174 q 149 -272 224 -272 l 33 -272 l 33 -150 l 96 -150 q 153 -131 133 -150 q 174 -58 174 -112 l 174 214 q 240 332 183 292 q 332 364 279 358 q 242 399 279 372 q 174 517 183 440 l 174 789 q 163 850 174 831 q 96 881 144 881 l 33 881 l 32 1003 l 147 1003 q 278 957 222 1003 q 342 813 342 904 l 343 535 q 393 450 343 478 q 474 429 429 429 z "},"~":{"ha":811,"x_min":85,"x_max":726,"o":"m 676 476 l 726 351 q 656 269 685 293 q 551 232 610 232 q 463 251 508 232 q 411 278 449 257 q 339 313 364 303 q 251 328 297 328 q 179 296 210 328 q 135 226 156 271 l 85 351 q 147 433 113 406 q 258 471 193 471 q 333 458 293 471 q 411 426 360 450 q 490 392 449 410 q 553 375 531 375 q 636 422 596 375 q 676 476 653 442 z "},"‚":{"ha":386,"x_min":96,"x_max":290,"o":"m 96 0 l 96 176 l 290 176 l 290 35 q 226 -143 290 -83 q 100 -203 181 -186 l 100 -132 q 186 -75 163 -112 q 203 0 203 -49 l 96 0 z "},"„":{"ha":694,"x_min":89,"x_max":606,"o":"m 89 0 l 89 176 l 283 176 l 283 35 q 219 -143 283 -83 q 93 -203 174 -186 l 93 -132 q 179 -75 156 -112 q 196 0 196 -49 l 89 0 m 411 0 l 411 176 l 606 176 l 606 35 q 542 -143 606 -83 q 415 -203 496 -186 l 415 -132 q 501 -75 478 -112 q 518 0 518 -49 l 411 0 z "},"…":{"ha":1389,"x_min":128,"x_max":1261,"o":"m 336 203 l 336 0 l 128 0 l 128 203 l 336 203 m 799 203 l 799 0 l 590 0 l 590 203 l 799 203 m 1261 203 l 1261 0 l 1053 0 l 1053 203 l 1261 203 z "},"†":{"ha":772,"x_min":49,"x_max":721,"o":"m 721 693 l 721 538 l 479 538 l 481 -237 l 293 -237 l 293 538 l 49 538 l 49 693 l 293 693 l 293 997 l 479 997 l 479 693 l 721 693 z "},"‡":{"ha":772,"x_min":49,"x_max":722,"o":"m 721 707 l 721 551 l 478 551 l 478 219 l 722 219 l 722 64 l 478 64 l 478 -237 l 292 -237 l 292 64 l 50 64 l 50 219 l 292 219 l 290 551 l 49 551 l 49 707 l 290 707 l 292 997 l 478 997 l 478 707 l 721 707 z "},"‰":{"ha":1479,"x_min":38,"x_max":1435,"o":"m 481 207 q 547 365 481 299 q 704 431 613 431 q 862 365 796 431 q 928 207 928 299 q 862 49 928 115 q 704 -17 796 -17 q 546 49 611 -17 q 481 207 481 114 m 619 207 q 644 147 619 171 q 704 122 668 122 q 764 146 739 122 q 789 207 789 169 q 765 267 789 243 q 704 292 740 292 q 644 268 669 292 q 619 207 619 244 m 988 207 q 1053 365 988 299 q 1211 431 1119 431 q 1369 365 1303 431 q 1435 207 1435 299 q 1369 49 1435 115 q 1211 -17 1303 -17 q 1053 49 1118 -17 q 988 207 988 114 m 1126 207 q 1151 147 1126 171 q 1211 122 1175 122 q 1271 146 1246 122 q 1296 207 1296 169 q 1272 267 1296 243 q 1211 292 1247 292 q 1151 268 1176 292 q 1126 207 1126 244 m 38 763 q 102 920 38 854 q 260 986 167 986 q 418 921 351 986 q 485 763 485 856 q 419 605 485 671 q 260 539 353 539 q 103 604 168 539 q 38 763 38 669 m 176 763 q 201 702 176 726 q 261 678 225 678 q 321 701 296 678 q 346 763 346 725 q 322 823 346 799 q 261 847 297 847 q 201 824 226 847 q 176 763 176 800 m 153 -26 l 704 986 l 807 986 l 256 -26 l 153 -26 z "},"‹":{"ha":463,"x_min":115,"x_max":347,"o":"m 347 672 l 346 511 l 208 389 l 347 267 l 347 106 l 115 306 l 115 472 l 347 672 z "},"‘":{"ha":386,"x_min":94,"x_max":289,"o":"m 289 807 l 289 631 l 94 631 l 94 772 q 160 950 94 889 q 286 1010 206 993 l 286 939 q 200 882 224 919 q 182 807 182 853 l 289 807 z "},"’":{"ha":386,"x_min":96,"x_max":289,"o":"m 96 821 l 96 997 l 289 997 l 289 856 q 224 678 289 739 q 100 618 178 635 l 99 689 q 185 746 161 708 q 203 821 203 775 l 96 821 z "},"“":{"ha":694,"x_min":88,"x_max":604,"o":"m 282 807 l 282 631 l 88 631 l 88 772 q 153 950 88 889 q 279 1010 199 993 l 279 939 q 193 882 217 919 q 175 807 175 853 l 282 807 m 604 807 l 604 631 l 410 631 l 410 772 q 475 950 410 889 q 601 1010 521 993 l 601 939 q 515 882 539 919 q 497 807 497 853 l 604 807 z "},"”":{"ha":694,"x_min":89,"x_max":606,"o":"m 89 821 l 89 997 l 283 997 l 282 856 q 217 678 282 739 q 93 618 171 635 l 92 689 q 178 746 154 708 q 196 821 196 775 l 89 821 m 411 821 l 411 997 l 606 997 l 604 856 q 539 678 604 739 q 415 618 493 635 l 414 689 q 500 746 476 708 q 518 821 518 775 l 411 821 z "},"•":{"ha":585,"x_min":69,"x_max":528,"o":"m 69 500 q 135 662 69 596 q 297 728 201 728 q 460 662 393 728 q 528 500 528 596 q 461 336 528 403 q 299 269 394 269 q 135 335 201 269 q 69 500 69 401 z "},"–":{"ha":772,"x_min":0,"x_max":771,"o":"m 771 463 l 771 315 l 0 315 l 0 463 l 771 463 z "},"—":{"ha":1389,"x_min":0,"x_max":1388,"o":"m 1388 463 l 1388 315 l 0 315 l 0 463 l 1388 463 z "},"™":{"ha":1389,"x_min":61,"x_max":1328,"o":"m 856 997 l 985 650 l 1115 997 l 1328 997 l 1328 425 l 1181 425 l 1181 815 l 1042 425 l 929 425 l 793 815 l 790 425 l 643 425 l 643 997 l 856 997 m 535 997 l 535 879 l 375 879 l 375 425 l 219 425 l 219 879 l 61 879 l 61 997 l 535 997 z "},"›":{"ha":463,"x_min":115,"x_max":347,"o":"m 254 389 l 115 511 l 115 672 l 346 472 l 347 306 l 115 106 l 115 267 l 254 389 z "}," ":{"ha":694,"x_min":0,"x_max":0,"o":""},"£":{"ha":772,"x_min":31,"x_max":672,"o":"m 672 997 l 672 289 q 594 53 672 132 q 363 -25 515 -25 q 72 104 142 -25 q 31 376 31 181 l 225 376 q 244 201 225 246 q 347 143 269 143 q 446 188 419 143 q 464 289 464 218 l 464 997 l 672 997 z "},"¤":{"ha":828,"x_min":22,"x_max":804,"o":"m 414 339 q 517 384 476 339 q 558 496 558 429 q 517 606 558 563 q 413 650 476 650 q 310 606 349 650 q 272 496 272 563 q 310 383 272 428 q 414 339 349 339 m 24 197 l 160 333 q 128 408 139 368 q 117 496 117 447 q 128 582 117 539 q 158 656 140 625 l 22 792 l 114 883 l 250 747 q 326 781 286 769 q 413 793 365 793 q 501 781 460 793 q 575 747 542 769 l 711 883 l 803 792 l 667 656 q 701 581 688 624 q 714 496 714 539 q 702 408 714 449 q 668 333 690 367 l 804 197 l 713 106 l 576 242 q 503 208 544 221 q 414 196 463 196 q 328 208 369 196 q 251 242 288 219 l 115 106 l 24 197 z "},"¦":{"ha":389,"x_min":115,"x_max":272,"o":"m 117 -26 l 117 376 l 272 376 l 272 -26 l 117 -26 m 115 621 l 117 1024 l 272 1024 l 271 621 l 115 621 z "},"§":{"ha":772,"x_min":47,"x_max":725,"o":"m 333 711 l 558 599 q 676 515 639 558 q 725 372 725 458 q 696 283 725 335 q 592 186 657 215 q 647 122 625 158 q 679 8 679 69 q 588 -189 679 -117 q 379 -256 503 -256 q 140 -151 218 -256 q 88 4 88 -81 l 271 4 q 299 -72 276 -46 q 393 -108 329 -108 q 475 -69 449 -108 q 493 -10 493 -43 q 474 43 493 24 q 411 85 454 63 l 199 193 q 86 278 119 233 q 47 417 47 331 q 85 525 47 476 q 176 600 117 567 q 128 661 147 626 q 103 761 103 707 q 175 933 103 864 q 385 1010 254 1010 q 574 958 501 1010 q 665 756 665 893 l 489 756 q 460 834 489 806 q 379 863 432 863 q 306 839 333 863 q 279 785 279 815 q 333 711 279 739 m 474 429 l 269 532 q 226 496 242 522 q 211 451 211 469 q 228 401 211 422 q 275 365 246 381 l 493 249 q 553 340 553 282 q 531 390 553 368 q 474 429 508 411 z "},"¨":{"ha":926,"x_min":106,"x_max":863,"o":"m 414 1111 l 239 1111 l 239 1271 l 414 1271 l 414 1111 m 685 1111 l 510 1111 l 508 1271 l 683 1271 l 685 1111 m 839 821 l 310 821 l 310 611 l 796 611 l 796 435 l 310 435 l 310 176 l 863 176 l 863 0 l 106 0 l 106 997 l 839 997 l 839 821 z "},"©":{"ha":1183,"x_min":68,"x_max":1124,"o":"m 1124 500 q 964 113 1124 261 q 596 -26 814 -26 q 228 113 378 -26 q 68 500 68 261 q 228 886 68 739 q 596 1024 376 1024 q 964 886 814 1024 q 1124 500 1124 739 m 972 500 q 862 790 972 676 q 594 903 751 903 q 327 791 435 903 q 219 500 219 679 q 328 209 219 322 q 596 96 436 96 q 862 209 751 96 q 972 500 972 322 m 739 421 l 864 421 q 779 261 849 319 q 617 203 710 203 q 406 288 486 203 q 326 504 326 374 q 404 719 326 635 q 613 804 482 804 q 776 749 710 804 q 860 592 843 694 l 740 592 q 696 660 731 638 q 614 683 661 683 q 508 636 546 683 q 471 507 471 589 q 511 376 471 428 q 617 324 551 324 q 702 348 669 324 q 739 421 735 372 z "},"«":{"ha":772,"x_min":121,"x_max":650,"o":"m 353 511 l 215 389 l 354 267 l 354 106 l 122 306 l 121 472 l 354 672 l 353 511 m 649 511 l 511 389 l 650 267 l 650 106 l 418 306 l 417 472 l 650 672 l 649 511 z "},"¬":{"ha":811,"x_min":54,"x_max":756,"o":"m 600 150 l 599 426 l 54 426 l 54 582 l 754 582 l 756 150 l 600 150 z "},"­":{"ha":596,"x_min":60,"x_max":539,"o":"m 539 525 l 539 422 l 60 422 l 60 525 l 539 525 z "},"®":{"ha":1179,"x_min":67,"x_max":1121,"o":"m 508 454 l 508 217 l 388 217 l 388 782 l 599 782 q 773 744 715 782 q 831 611 831 706 q 793 500 831 536 q 694 464 756 464 l 839 217 l 696 217 l 565 454 l 508 454 m 507 550 l 614 550 q 680 564 660 550 q 700 624 700 578 q 669 674 700 663 q 592 686 639 686 l 507 686 l 507 550 m 1121 499 q 963 111 1121 258 q 596 -26 815 -26 q 226 111 375 -26 q 67 499 67 258 q 226 886 67 739 q 596 1024 375 1024 q 963 886 815 1024 q 1121 499 1121 739 m 969 499 q 860 788 969 675 q 594 901 751 901 q 326 790 433 901 q 218 499 218 678 q 326 208 218 321 q 596 96 435 96 q 860 208 751 96 q 969 499 969 319 z "},"¯":{"ha":386,"x_min":-29,"x_max":417,"o":"m 297 997 l 297 0 l 89 0 l 89 997 l 297 997 m 146 1271 l 146 1111 l -29 1111 l -29 1271 l 146 1271 m 417 1271 l 417 1111 l 242 1111 l 242 1271 l 417 1271 z "},"°":{"ha":556,"x_min":78,"x_max":475,"o":"m 78 790 q 136 931 78 872 q 276 989 194 989 q 417 931 358 989 q 475 790 475 872 q 418 650 475 708 q 278 592 361 592 q 137 649 196 592 q 78 790 78 707 m 156 790 q 191 705 156 740 q 276 669 226 669 q 362 705 326 669 q 397 790 397 740 q 362 876 397 840 q 276 911 326 911 q 191 876 226 911 q 156 790 156 840 z "},"±":{"ha":811,"x_min":56,"x_max":756,"o":"m 328 529 l 328 703 l 483 703 l 483 529 l 756 529 l 756 374 l 483 374 l 482 199 l 326 199 l 328 374 l 56 374 l 56 529 l 328 529 m 56 0 l 56 156 l 756 156 l 756 0 l 56 0 z "},"²":{"ha":386,"x_min":89,"x_max":297,"o":"m 297 997 l 297 0 l 89 0 l 89 997 l 297 997 z "},"³":{"ha":386,"x_min":94,"x_max":289,"o":"m 94 739 l 289 739 l 289 0 l 94 0 l 94 739 m 289 1007 l 289 826 l 94 826 l 94 1007 l 289 1007 z "},"µ":{"ha":849,"x_min":90,"x_max":757,"o":"m 757 739 l 757 0 l 571 0 l 571 104 q 489 13 536 44 q 396 -19 442 -19 q 286 17 322 -19 l 286 -287 l 92 -287 l 90 739 l 286 739 l 286 281 q 326 169 286 203 q 413 144 357 144 q 511 178 472 144 q 563 313 563 222 l 563 739 l 757 739 z "},"¶":{"ha":772,"x_min":-11,"x_max":749,"o":"m 297 -265 l 297 482 q 69 546 150 482 q -11 722 -11 610 q 85 921 -11 860 q 326 972 167 972 l 749 972 l 749 -265 l 593 -265 l 593 854 l 453 854 l 453 -265 l 297 -265 z "},"·":{"ha":386,"x_min":81,"x_max":306,"o":"m 81 351 q 113 431 81 399 q 193 464 146 464 q 273 431 240 464 q 306 351 306 399 q 274 272 306 306 q 193 239 242 239 q 113 272 146 239 q 81 351 81 304 z "},"¸":{"ha":772,"x_min":39,"x_max":740,"o":"m 346 853 l 171 853 l 171 1013 l 346 1013 l 346 853 m 615 853 l 440 853 l 440 1013 l 615 1013 l 615 853 m 732 217 q 599 32 696 93 q 407 -19 517 -19 q 144 68 236 -19 q 39 385 39 169 q 93 604 39 511 q 392 758 182 758 q 621 682 532 758 q 740 351 740 579 l 739 317 l 232 317 q 285 177 244 218 q 407 136 326 136 q 485 157 450 136 q 532 217 521 178 l 732 217 m 540 443 q 485 565 532 525 q 390 599 446 599 q 285 558 322 599 q 239 443 247 518 l 540 443 z "},"¹":{"ha":507,"x_min":96,"x_max":1490,"o":"m 1490 407 q 1435 250 1490 314 q 1244 174 1368 174 q 1056 250 1122 174 q 999 407 999 315 q 1056 564 999 499 q 1246 640 1122 640 q 1433 564 1367 640 q 1490 407 1490 499 m 1354 407 q 1325 502 1354 464 q 1244 540 1296 540 q 1164 503 1193 540 q 1135 407 1135 465 q 1165 313 1135 351 q 1246 274 1196 274 q 1326 312 1297 274 q 1354 407 1354 350 m 1038 111 l 1454 111 l 1454 0 l 1038 0 l 1038 111 m 714 997 l 908 997 l 908 0 l 700 0 l 293 711 l 290 0 l 96 0 l 96 997 l 315 997 l 710 303 l 714 997 z "},"»":{"ha":772,"x_min":121,"x_max":650,"o":"m 557 389 l 417 511 l 417 672 l 649 472 l 650 306 l 418 106 l 418 267 l 557 389 m 261 389 l 121 511 l 122 672 l 354 472 l 354 306 l 122 106 l 122 267 l 261 389 z "},"¼":{"ha":386,"x_min":4,"x_max":290,"o":"m 290 739 l 290 -78 q 228 -260 290 -212 q 54 -297 178 -297 l 6 -297 l 4 -142 l 39 -142 q 74 -133 61 -142 q 96 -74 96 -118 l 96 739 l 290 739 m 290 1007 l 290 826 l 96 826 l 96 1007 l 290 1007 z "},"½":{"ha":926,"x_min":54,"x_max":874,"o":"m 54 307 l 254 307 q 290 206 254 246 q 465 146 344 146 q 607 171 554 146 q 674 275 674 203 q 624 357 674 329 q 493 399 590 375 l 386 424 q 168 501 226 461 q 69 717 69 569 q 139 911 69 832 q 453 1024 238 1024 q 761 908 657 1024 q 840 701 840 821 l 640 701 q 606 793 633 761 q 436 851 556 851 q 319 826 365 851 q 263 732 263 794 q 300 654 263 681 q 368 628 321 639 l 613 568 q 794 489 736 538 q 874 300 874 424 q 774 65 874 149 q 481 -26 664 -26 q 131 93 238 -26 q 54 307 54 178 z "},"¾":{"ha":772,"x_min":42,"x_max":721,"o":"m 699 514 l 508 514 q 481 581 500 561 q 378 611 450 611 q 278 588 307 611 q 257 539 257 571 q 376 469 257 496 q 600 408 549 432 q 721 235 721 351 q 603 28 721 93 q 397 -19 517 -19 q 157 33 249 -19 q 42 236 42 100 l 242 236 q 278 156 242 185 q 403 128 315 128 q 501 156 468 128 q 526 204 526 176 q 408 276 526 250 q 186 336 232 315 q 67 511 67 392 q 129 675 67 608 q 365 758 208 758 q 586 715 506 758 q 699 514 699 656 z "},"¿":{"ha":386,"x_min":-29,"x_max":417,"o":"m 96 739 l 290 739 l 290 0 l 96 0 l 96 739 m 146 1013 l 146 853 l -29 853 l -29 1013 l 146 1013 m 415 1013 l 417 853 l 242 853 l 240 1013 l 415 1013 z "},"À":{"ha":1003,"x_min":21,"x_max":968,"o":"m 240 0 l 21 0 l 376 997 l 617 997 l 968 0 l 742 0 l 676 206 l 308 206 l 240 0 m 365 378 l 619 378 l 494 772 l 365 378 z "},"Á":{"ha":1003,"x_min":107,"x_max":931,"o":"m 306 610 l 569 610 q 825 532 726 610 q 931 304 931 449 q 825 79 931 163 q 571 0 725 0 l 107 0 l 107 997 l 856 997 l 856 822 l 306 822 l 306 610 m 307 438 l 307 172 l 571 172 q 681 208 640 172 q 722 304 722 243 q 681 403 722 367 q 569 439 639 439 l 307 438 z "},"Â":{"ha":1003,"x_min":107,"x_max":929,"o":"m 107 997 l 592 997 q 836 908 756 997 q 899 742 899 839 q 853 594 899 649 q 775 538 826 564 q 897 438 860 506 q 929 296 929 379 q 844 90 929 172 q 743 25 796 43 q 529 0 669 0 l 107 0 l 107 997 m 307 172 l 563 172 q 681 208 640 172 q 722 318 722 243 q 678 409 722 379 q 571 439 633 439 l 307 439 l 307 172 m 307 607 l 551 607 q 656 632 618 607 q 699 718 699 661 q 658 800 699 775 q 544 825 618 825 l 307 825 l 307 607 z "},"Ã":{"ha":849,"x_min":107,"x_max":831,"o":"m 315 0 l 107 0 l 107 997 l 831 997 l 831 821 l 315 821 l 315 0 z "},"Ä":{"ha":1025,"x_min":36,"x_max":976,"o":"m 189 499 l 189 997 l 878 997 l 878 176 l 975 176 l 976 -186 l 781 -186 l 781 0 l 231 0 l 231 -186 l 38 -186 l 36 176 q 149 243 114 176 q 189 499 189 319 m 669 176 l 669 821 l 385 821 l 383 499 q 365 290 383 358 q 307 176 346 221 l 669 176 z "},"Å":{"ha":928,"x_min":107,"x_max":864,"o":"m 840 821 l 311 821 l 311 611 l 797 611 l 797 435 l 311 435 l 311 176 l 864 176 l 864 0 l 107 0 l 107 997 l 840 997 l 840 821 z "},"Æ":{"ha":1379,"x_min":28,"x_max":1356,"o":"m 588 0 l 588 338 l 532 407 l 294 0 l 28 0 l 388 575 l 50 997 l 300 997 l 588 592 l 588 997 l 796 997 l 796 592 l 1083 997 l 1333 997 l 996 575 l 1356 0 l 1089 0 l 849 407 l 796 338 l 796 0 l 588 0 z "},"Ç":{"ha":926,"x_min":56,"x_max":878,"o":"m 658 529 q 800 461 735 521 q 878 292 878 390 q 792 75 878 160 q 482 -26 688 -26 q 132 93 239 -26 q 56 307 56 178 l 256 307 q 297 206 256 249 q 478 146 356 146 q 613 186 557 146 q 669 292 669 226 q 612 401 669 363 q 472 439 554 439 l 314 439 l 315 607 l 471 607 q 594 638 547 607 q 642 729 642 669 q 592 819 642 786 q 463 851 542 851 q 301 793 350 851 q 269 701 269 754 l 69 701 q 150 908 69 819 q 460 1024 254 1024 q 769 918 668 1024 q 846 729 846 839 q 785 589 846 642 q 658 529 736 547 z "},"È":{"ha":1003,"x_min":100,"x_max":913,"o":"m 293 303 l 693 997 l 913 997 l 913 0 l 718 0 l 718 711 l 308 0 l 100 0 l 100 997 l 293 997 l 293 303 z "},"É":{"ha":1003,"x_min":101,"x_max":914,"o":"m 294 303 l 694 997 l 914 997 l 914 0 l 719 0 l 719 711 l 310 0 l 101 0 l 101 997 l 294 997 l 294 303 m 753 1203 q 707 1078 753 1132 q 506 1000 642 1000 q 325 1081 383 1000 q 285 1203 285 1136 l 376 1203 q 403 1142 385 1161 q 514 1106 438 1106 q 607 1119 578 1106 q 663 1203 651 1140 l 753 1203 z "},"Ê":{"ha":1003,"x_min":114,"x_max":996,"o":"m 322 0 l 114 0 l 114 997 l 322 997 l 322 592 l 703 997 l 972 997 l 564 589 l 996 0 l 728 0 l 419 438 l 322 338 l 322 0 z "},"Ë":{"ha":926,"x_min":32,"x_max":850,"o":"m 356 821 l 356 315 q 276 60 356 146 q 32 -26 196 -26 l 32 156 q 138 203 107 156 q 161 315 161 240 l 161 997 l 850 997 l 850 0 l 642 0 l 642 821 l 356 821 z "},"Ì":{"ha":1157,"x_min":103,"x_max":1069,"o":"m 1069 0 l 875 0 l 875 722 l 686 0 l 482 0 l 300 722 l 297 0 l 103 0 l 103 997 l 407 997 l 588 308 l 768 997 l 1069 997 l 1069 0 z "},"Í":{"ha":1003,"x_min":106,"x_max":911,"o":"m 313 447 l 314 0 l 106 0 l 106 997 l 314 997 l 314 619 l 703 619 l 703 997 l 911 997 l 911 0 l 701 0 l 701 447 l 313 447 z "},"Î":{"ha":1081,"x_min":67,"x_max":1025,"o":"m 547 1024 q 729 992 642 1024 q 931 843 857 944 q 1025 499 1025 713 q 931 154 1025 285 q 731 6 857 51 q 547 -26 643 -26 q 364 6 451 -26 q 163 154 238 51 q 67 499 67 286 q 161 843 67 713 q 364 992 235 944 q 547 1024 451 1024 m 547 150 q 724 219 653 150 q 817 499 817 310 q 725 778 817 688 q 547 847 654 847 q 369 778 442 847 q 275 499 275 688 q 368 219 275 310 q 547 150 440 150 z "},"Ï":{"ha":1003,"x_min":106,"x_max":911,"o":"m 314 821 l 314 0 l 106 0 l 106 997 l 911 997 l 911 0 l 703 0 l 703 821 l 314 821 z "},"Ð":{"ha":926,"x_min":99,"x_max":864,"o":"m 307 0 l 99 0 l 99 997 l 554 997 q 781 912 699 997 q 864 678 864 826 q 806 485 864 572 q 546 360 722 360 l 307 360 l 307 0 m 499 532 q 635 593 599 532 q 654 688 654 626 q 611 793 654 761 q 471 825 568 825 l 306 825 l 306 532 l 499 532 z "},"Ñ":{"ha":1003,"x_min":53,"x_max":943,"o":"m 735 671 q 682 779 715 743 q 513 843 625 843 q 353 775 417 843 q 267 494 267 683 q 324 257 267 347 q 514 154 389 154 q 658 202 601 154 q 733 342 715 250 l 942 342 q 806 76 910 171 q 510 -26 693 -26 q 182 106 304 -26 q 53 497 53 244 q 186 892 53 750 q 513 1024 310 1024 q 835 903 715 1024 q 943 671 932 804 l 735 671 z "},"Ò":{"ha":849,"x_min":22,"x_max":833,"o":"m 532 0 l 324 0 l 324 821 l 22 821 l 22 997 l 833 997 l 833 821 l 532 821 l 532 0 z "},"Ó":{"ha":1003,"x_min":24,"x_max":982,"o":"m 408 -15 l 392 -15 q 325 -13 349 -15 q 271 0 301 -11 l 271 178 q 303 167 283 172 q 340 161 324 161 q 396 174 372 161 q 435 218 419 186 l 440 226 l 24 997 l 272 997 l 539 440 l 743 997 l 982 997 l 622 167 q 513 29 586 82 q 408 -15 451 -15 z "},"Ô":{"ha":1235,"x_min":61,"x_max":1175,"o":"m 725 890 q 1017 810 894 890 q 1175 499 1175 706 q 1018 189 1175 293 q 726 107 896 107 l 726 0 l 518 0 l 518 107 q 224 188 347 107 q 61 499 61 293 q 222 808 61 703 q 517 890 347 890 l 517 997 l 725 997 l 725 890 m 726 729 l 726 268 q 890 313 826 268 q 975 499 975 371 q 890 683 975 624 q 726 729 825 729 m 518 268 l 518 729 q 353 685 418 729 q 267 499 267 626 q 353 314 267 374 q 518 268 419 268 z "},"Õ":{"ha":926,"x_min":26,"x_max":914,"o":"m 914 0 l 660 0 l 471 340 l 269 0 l 26 0 l 349 510 l 44 997 l 293 997 l 469 675 l 653 997 l 893 997 l 588 518 l 914 0 z "},"Ö":{"ha":1003,"x_min":78,"x_max":981,"o":"m 786 0 l 78 0 l 78 997 l 286 997 l 286 176 l 675 176 l 675 997 l 883 997 l 883 176 l 981 176 l 981 -186 l 786 -186 l 786 0 z "},"×":{"ha":1003,"x_min":104,"x_max":911,"o":"m 104 675 l 106 997 l 314 997 l 313 675 q 354 575 313 607 q 464 543 396 543 q 587 564 524 543 q 703 619 650 585 l 703 997 l 911 997 l 911 0 l 703 0 l 701 447 q 556 386 633 408 q 403 364 478 364 q 193 433 269 364 q 104 675 104 514 z "},"Ø":{"ha":1235,"x_min":104,"x_max":1146,"o":"m 521 176 l 521 997 l 729 997 l 729 176 l 938 176 l 938 997 l 1146 997 l 1146 0 l 104 0 l 104 997 l 313 997 l 313 176 l 521 176 z "},"Ù":{"ha":1254,"x_min":90,"x_max":1231,"o":"m 1035 0 l 90 0 l 90 997 l 299 997 l 299 176 l 507 176 l 507 997 l 715 997 l 715 176 l 924 176 l 924 997 l 1132 997 l 1132 176 l 1229 176 l 1231 -186 l 1035 -186 l 1035 0 z "},"Ú":{"ha":1003,"x_min":19,"x_max":954,"o":"m 397 638 l 636 638 q 896 513 811 638 q 954 319 954 426 q 872 86 954 172 q 644 0 790 0 l 189 0 l 188 822 l 19 822 l 21 997 l 397 997 l 397 638 m 396 465 l 397 172 l 563 172 q 702 204 660 172 q 744 310 744 236 q 725 404 744 371 q 589 465 689 465 l 396 465 z "},"Û":{"ha":1311,"x_min":126,"x_max":1226,"o":"m 335 638 l 574 638 q 833 513 749 638 q 892 319 892 426 q 810 86 892 172 q 582 0 728 0 l 126 0 l 126 997 l 335 997 l 335 638 m 1226 0 l 1018 0 l 1018 997 l 1226 997 l 1226 0 m 335 465 l 335 172 l 500 172 q 640 204 597 172 q 682 310 682 236 q 663 404 682 371 q 526 465 626 465 l 335 465 z "},"Ü":{"ha":926,"x_min":113,"x_max":878,"o":"m 321 638 l 560 638 q 819 513 735 638 q 878 319 878 426 q 796 86 878 172 q 568 0 714 0 l 113 0 l 113 997 l 321 997 l 321 638 m 319 465 l 321 172 l 486 172 q 626 204 583 172 q 668 310 668 236 q 649 404 668 371 q 513 465 613 465 l 319 465 z "},"Ý":{"ha":1003,"x_min":61,"x_max":950,"o":"m 728 611 q 628 796 704 735 q 490 843 568 843 q 322 779 378 843 q 271 671 292 744 l 63 671 q 165 901 63 799 q 493 1024 288 1024 q 818 892 694 1024 q 950 497 950 750 q 822 107 950 247 q 496 -26 700 -26 q 201 76 315 -26 q 61 342 94 172 l 269 342 q 347 203 289 251 q 492 154 406 154 q 667 236 603 154 q 736 435 724 310 l 344 435 l 344 611 l 728 611 z "},"Þ":{"ha":1389,"x_min":106,"x_max":1333,"o":"m 457 447 l 313 447 l 314 0 l 106 0 l 106 997 l 314 997 l 314 619 l 465 619 q 574 882 486 782 q 746 997 643 961 q 896 1024 822 1024 q 1061 992 981 1024 q 1246 843 1178 946 q 1333 499 1333 711 q 1247 154 1333 283 q 1063 6 1179 51 q 896 -26 982 -26 q 732 3 814 -26 q 546 136 614 46 q 457 447 457 256 m 896 150 q 1044 219 983 150 q 1125 499 1125 311 q 1046 778 1125 688 q 896 847 985 847 q 746 778 808 847 q 664 499 664 686 q 744 219 664 310 q 896 150 806 150 z "},"ß":{"ha":1003,"x_min":69,"x_max":918,"o":"m 918 0 l 714 0 l 714 390 l 579 390 l 325 0 l 69 0 l 351 390 q 179 489 250 413 q 99 694 99 575 q 183 904 99 817 q 414 997 274 997 l 918 997 l 918 0 m 713 558 l 713 825 l 453 825 q 340 783 381 825 q 307 700 307 749 q 348 597 307 635 q 468 558 389 558 l 713 558 z "},"à":{"ha":772,"x_min":47,"x_max":739,"o":"m 696 144 q 707 60 696 83 q 739 29 718 36 l 739 0 l 529 0 q 511 88 515 42 q 425 17 464 38 q 272 -19 361 -19 q 118 31 179 -19 q 47 196 47 89 q 105 359 47 300 q 263 432 163 418 l 436 458 q 491 478 476 464 q 506 517 506 493 q 460 590 506 571 q 376 603 431 603 q 283 568 313 603 q 258 500 263 543 l 71 500 q 186 714 85 653 q 400 758 260 758 q 586 721 511 758 q 694 544 694 667 l 696 144 m 506 360 q 461 338 492 349 q 369 318 431 328 q 281 290 307 308 q 242 208 242 264 q 272 139 242 163 q 332 119 297 119 q 453 160 401 119 q 506 265 506 200 l 506 360 z "},"á":{"ha":849,"x_min":53,"x_max":808,"o":"m 210 958 q 354 1022 264 1006 q 543 1033 415 1033 q 599 1050 583 1033 q 607 1068 603 1056 l 763 1068 q 758 1022 761 1040 q 636 879 736 915 q 477 856 597 865 q 311 821 357 847 q 239 738 265 794 q 211 651 225 710 q 305 726 243 694 q 429 758 367 758 q 693 664 589 758 q 808 369 808 558 q 694 75 808 179 q 431 -19 592 -19 q 167 75 269 -19 q 53 369 53 179 q 90 753 53 617 q 210 958 128 889 m 431 594 q 286 518 331 594 q 253 369 253 460 q 285 222 253 278 q 431 144 329 144 q 575 221 531 144 q 608 369 608 279 q 576 517 608 461 q 431 594 532 594 z "},"â":{"ha":772,"x_min":85,"x_max":718,"o":"m 85 0 l 85 739 l 388 739 q 613 694 533 739 q 692 547 692 649 q 644 435 692 481 q 540 385 603 394 q 657 338 613 372 q 718 204 718 289 q 628 46 718 99 q 413 -1 549 -1 l 85 0 m 279 314 l 279 128 l 408 128 q 524 217 524 128 q 493 289 524 264 q 408 314 463 314 l 279 314 m 279 611 l 279 438 l 392 438 q 472 460 442 438 q 501 526 501 483 q 472 590 501 568 q 392 611 442 611 l 279 611 z "},"ã":{"ha":617,"x_min":85,"x_max":585,"o":"m 585 583 l 279 583 l 279 0 l 85 0 l 85 739 l 585 739 l 585 583 z "},"ä":{"ha":821,"x_min":19,"x_max":789,"o":"m 131 385 l 131 739 l 700 739 l 701 154 l 789 154 l 789 -186 l 608 -186 l 608 0 l 200 0 l 200 -186 l 19 -186 l 19 154 q 103 202 76 154 q 131 385 131 250 m 507 154 l 506 583 l 310 583 l 310 381 q 258 154 310 211 l 507 154 z "},"å":{"ha":772,"x_min":40,"x_max":742,"o":"m 733 217 q 600 32 697 93 q 408 -19 518 -19 q 146 68 238 -19 q 40 385 40 169 q 94 604 40 511 q 393 758 183 758 q 622 682 533 758 q 742 351 742 579 l 740 317 l 233 317 q 287 177 246 218 q 408 136 328 136 q 487 157 451 136 q 533 217 522 178 l 733 217 m 542 443 q 486 565 533 525 q 392 599 447 599 q 286 558 324 599 q 240 443 249 518 l 542 443 z "},"æ":{"ha":1146,"x_min":22,"x_max":1126,"o":"m 478 0 l 478 233 l 421 301 l 256 0 l 22 0 l 289 453 l 28 739 l 260 739 l 476 465 l 476 739 l 669 739 l 669 465 l 886 739 l 1118 739 l 857 453 l 1126 0 l 893 0 l 728 301 l 671 233 l 671 0 l 478 0 z "},"ç":{"ha":772,"x_min":49,"x_max":728,"o":"m 533 385 q 658 347 614 375 q 728 221 728 306 q 610 26 728 89 q 404 -19 524 -19 q 164 33 256 -19 q 49 236 49 100 l 249 236 q 285 156 249 185 q 410 128 322 128 q 508 164 475 128 q 533 221 533 190 q 494 290 533 265 q 401 314 456 314 l 265 314 l 265 438 l 400 438 q 479 460 449 438 q 510 524 510 482 q 490 579 510 558 q 392 611 461 611 q 290 581 321 611 q 261 514 269 560 l 71 514 q 182 714 71 653 q 401 758 264 758 q 638 681 558 758 q 700 524 700 618 q 647 424 700 460 q 533 385 610 399 z "},"è":{"ha":849,"x_min":111,"x_max":778,"o":"m 778 0 l 583 0 l 583 444 l 321 0 l 113 0 l 111 739 l 307 739 l 307 294 l 568 739 l 778 739 l 778 0 z "},"é":{"ha":849,"x_min":111,"x_max":778,"o":"m 778 0 l 583 0 l 583 444 l 321 0 l 113 0 l 111 739 l 307 739 l 307 294 l 568 739 l 778 739 l 778 0 m 690 1042 q 643 917 683 965 q 443 839 579 839 q 263 919 321 839 q 222 1042 222 975 l 314 1042 q 342 981 322 1001 q 453 944 376 944 q 544 958 515 944 q 600 1042 590 981 l 690 1042 z "},"ê":{"ha":772,"x_min":71,"x_max":764,"o":"m 265 0 l 71 0 l 71 739 l 264 739 l 264 458 l 508 739 l 751 739 l 486 453 l 764 0 l 528 0 l 344 317 l 265 233 l 265 0 z "},"ë":{"ha":772,"x_min":38,"x_max":700,"o":"m 311 583 l 311 263 q 231 43 311 113 q 38 -17 161 -17 l 38 139 q 107 168 83 139 q 131 263 131 197 l 131 739 l 700 739 l 700 0 l 506 0 l 506 583 l 311 583 z "},"ì":{"ha":1081,"x_min":99,"x_max":996,"o":"m 814 504 l 629 0 l 465 0 l 278 504 l 272 504 q 278 454 276 478 q 279 417 279 431 l 279 0 l 99 0 l 99 739 l 363 739 l 544 236 l 550 236 l 729 739 l 996 739 l 996 0 l 815 0 l 815 417 q 816 481 815 467 q 819 504 817 494 l 814 504 z "},"í":{"ha":849,"x_min":99,"x_max":764,"o":"m 764 0 l 569 0 l 569 292 l 293 292 l 293 0 l 99 0 l 99 739 l 292 739 l 292 447 l 568 447 l 568 739 l 764 739 l 764 0 z "},"î":{"ha":849,"x_min":54,"x_max":810,"o":"m 432 -19 q 168 75 271 -19 q 54 369 54 179 q 168 664 54 558 q 431 758 271 758 q 694 664 590 758 q 810 369 810 558 q 696 75 810 179 q 432 -19 593 -19 m 432 594 q 288 518 332 594 q 254 369 254 460 q 286 222 254 278 q 432 144 331 144 q 576 221 532 144 q 610 369 610 279 q 578 517 610 461 q 432 594 533 594 z "},"ï":{"ha":849,"x_min":99,"x_max":764,"o":"m 764 0 l 569 0 l 569 582 l 293 582 l 293 0 l 99 0 l 99 739 l 764 739 l 764 0 z "},"ð":{"ha":849,"x_min":79,"x_max":796,"o":"m 265 632 q 342 717 304 690 q 488 758 400 758 q 703 664 618 758 q 796 378 796 561 q 724 103 796 210 q 485 -19 640 -19 q 339 22 397 -19 q 275 94 304 47 l 272 -287 l 79 -287 l 79 739 l 265 739 l 265 632 m 435 140 q 563 219 519 140 q 596 364 596 281 q 560 521 596 463 q 429 590 517 590 q 297 517 338 590 q 265 353 265 458 q 303 206 265 261 q 435 140 347 140 z "},"ñ":{"ha":772,"x_min":53,"x_max":735,"o":"m 733 269 q 664 97 725 174 q 396 -19 572 -19 q 121 106 210 -19 q 53 349 53 201 q 136 643 53 538 q 407 758 226 758 q 607 704 524 758 q 735 475 722 631 l 538 475 q 488 569 525 539 q 408 594 457 594 q 285 522 325 594 q 253 381 253 465 q 290 194 253 249 q 403 140 326 140 q 506 192 467 140 q 536 269 536 232 l 733 269 z "},"ò":{"ha":686,"x_min":28,"x_max":664,"o":"m 249 0 l 249 583 l 28 583 l 28 739 l 664 739 l 664 583 l 443 583 l 443 0 l 249 0 z "},"ó":{"ha":772,"x_min":19,"x_max":754,"o":"m 501 13 q 389 -244 431 -197 q 217 -297 342 -297 l 128 -294 l 128 -139 l 165 -142 q 249 -125 225 -142 q 293 -31 281 -103 l 19 739 l 236 739 l 396 194 l 549 739 l 754 739 l 501 13 z "},"ô":{"ha":1157,"x_min":47,"x_max":1119,"o":"m 485 -287 l 485 94 q 417 7 440 22 q 317 -19 376 -19 q 107 103 176 -19 q 47 378 47 207 q 124 664 47 563 q 311 758 194 758 q 431 718 388 758 q 492 632 449 701 l 494 997 l 672 997 l 672 632 q 733 717 721 706 q 853 758 778 758 q 1042 664 969 758 q 1119 378 1119 561 q 1061 103 1119 206 q 850 -19 992 -19 q 731 22 774 -19 q 682 94 721 32 l 679 -287 l 485 -287 m 494 353 l 494 397 q 476 532 494 493 q 369 590 449 590 q 269 521 299 590 q 247 364 247 468 q 265 219 247 271 q 364 140 293 140 q 475 206 447 140 q 494 353 494 250 m 800 140 q 899 219 869 140 q 919 364 919 275 q 896 521 919 467 q 794 590 865 590 q 690 532 717 590 q 672 397 672 492 l 672 353 q 689 206 672 246 q 800 140 717 140 z "},"õ":{"ha":772,"x_min":25,"x_max":756,"o":"m 756 0 l 515 0 l 388 222 l 260 0 l 25 0 l 276 376 l 33 739 l 269 739 l 394 524 l 517 739 l 746 739 l 504 376 l 756 0 z "},"ö":{"ha":849,"x_min":85,"x_max":839,"o":"m 658 0 l 85 0 l 85 738 l 279 738 l 279 156 l 556 156 l 556 738 l 750 738 l 750 156 l 839 156 l 839 -186 l 658 -186 l 658 0 z "},"÷":{"ha":849,"x_min":113,"x_max":778,"o":"m 778 0 l 583 0 l 583 304 q 513 271 540 282 q 364 236 426 236 q 183 294 247 236 q 113 494 113 360 l 113 739 l 307 739 l 307 500 q 347 418 307 442 q 432 400 378 400 q 531 422 472 400 q 582 446 550 429 l 582 739 l 778 739 l 778 0 z "},"ø":{"ha":1157,"x_min":99,"x_max":1072,"o":"m 488 156 l 488 739 l 682 739 l 682 156 l 878 156 l 878 738 l 1072 738 l 1072 0 l 99 0 l 99 738 l 293 738 l 293 156 l 488 156 z "},"ù":{"ha":1157,"x_min":85,"x_max":1147,"o":"m 967 0 l 85 0 l 85 738 l 279 738 l 279 156 l 474 156 l 474 739 l 668 739 l 668 156 l 864 156 l 864 738 l 1058 738 l 1058 156 l 1147 156 l 1147 -186 l 967 -186 l 967 0 z "},"ú":{"ha":849,"x_min":18,"x_max":793,"o":"m 367 739 l 367 451 l 483 451 q 706 401 631 451 q 793 217 793 343 q 701 53 793 111 q 483 0 618 0 l 172 0 l 172 583 l 18 583 l 18 739 l 367 739 m 367 314 l 367 128 l 479 128 q 567 151 535 128 q 599 217 599 174 q 566 289 599 264 q 479 314 533 314 l 367 314 z "},"û":{"ha":1081,"x_min":99,"x_max":996,"o":"m 293 451 l 400 451 q 622 401 547 451 q 710 217 710 343 q 618 53 710 111 q 400 0 535 0 l 99 0 l 99 739 l 293 739 l 293 451 m 996 0 l 801 0 l 801 739 l 996 739 l 996 0 m 293 314 l 293 128 l 396 128 q 483 151 451 128 q 515 217 515 174 q 483 289 515 264 q 396 314 450 314 l 293 314 z "},"ü":{"ha":772,"x_min":85,"x_max":706,"o":"m 279 451 l 396 451 q 618 401 543 451 q 706 217 706 343 q 614 53 706 111 q 396 0 531 0 l 85 0 l 85 739 l 279 739 l 279 451 m 279 314 l 279 128 l 392 128 q 479 151 447 128 q 511 217 511 174 q 478 289 511 264 q 392 314 446 314 l 279 314 z "},"ý":{"ha":772,"x_min":53,"x_max":732,"o":"m 526 446 q 485 549 515 513 q 379 594 446 594 q 283 553 318 594 q 250 475 257 521 l 53 475 q 171 703 53 628 q 378 758 258 758 q 649 643 557 758 q 732 349 732 538 q 667 107 732 201 q 392 -19 579 -19 q 124 96 215 -19 q 54 269 63 172 l 251 269 q 296 172 251 214 q 382 140 331 140 q 489 188 451 140 q 529 292 518 225 l 310 292 l 308 447 l 526 446 z "},"þ":{"ha":1157,"x_min":85,"x_max":1103,"o":"m 413 292 l 279 292 l 279 0 l 85 0 l 85 739 l 278 739 l 278 447 l 411 447 q 533 682 432 599 q 754 758 626 758 q 996 664 900 758 q 1103 369 1103 558 q 997 75 1103 179 q 756 -19 903 -19 q 535 56 625 -19 q 413 292 433 139 m 756 594 q 635 518 674 594 q 604 369 604 458 q 633 222 604 279 q 756 144 674 144 q 876 221 838 144 q 907 369 907 281 q 878 517 907 460 q 756 594 838 594 z "},"ÿ":{"ha":772,"x_min":36,"x_max":688,"o":"m 36 0 l 238 296 q 122 351 179 296 q 53 522 53 419 q 131 685 53 632 q 358 739 210 739 l 688 739 l 688 0 l 493 0 l 493 296 l 450 296 l 268 0 l 36 0 m 492 419 l 492 611 l 364 611 q 281 587 314 611 q 249 519 249 563 q 278 445 249 471 q 363 419 308 419 l 492 419 z "}}}
